# AST/ASF file generated using VICON BodyLanguage
# -----------------------------------------------
:version 1.10
:name VICON
:units
  mass 1.0
  length 0.45
  angle deg
:documentation
   .ast/.asf automatically generated from VICON data using
   VICON BodyBuilder and BodyLanguage model FoxedUp or BRILLIANT.MOD
:root
   order TX TY TZ RX RY RZ
   axis XYZ
   position 0 0 0  
   orientation 0 0 0 
:bonedata
  begin
     id 1 
     name lhipjoint
     direction 0.627412 -0.730575 0.26947 
     length 2.49821 
     axis 0 0 0  XYZ
  end
  begin
     id 2 
     name lfemur
     direction 0.34202 -0.939693 0  
     length 6.89165  
     axis 0 0 20  XYZ
    dof rx ry rz
    limits (-160.0 20.0)
           (-70.0 70.0)
           (-60.0 70.0)
  end
  begin
     id 3 
     name ltibia
     direction 0.34202 -0.939693 0   
     length 7.91287   
     axis 0 0 20   XYZ
    dof rx
    limits (-10.0 170.0)
  end
  begin
     id 4 
     name lfoot
     direction 0.0941675 -0.258723 0.96135   
     length 2.16919   
     axis -90 7.62852e-016 20   XYZ
    dof rx rz
    limits (-45.0 90.0)
           (-70.0 20.0)
  end
  begin
     id 5 
     name ltoes
     direction 1.5347e-011 -4.21941e-011 1   
     length 1.08535   
     axis -90 7.62852e-016 20   XYZ
    dof rx
    limits (-90.0 20.0)
  end
  begin
     id 6 
     name rhipjoint
     direction -0.614241 -0.740361 0.27308   
     length 2.46519  
     axis 0 0 0  XYZ 
  end
  begin
     id 7 
     name rfemur
     direction -0.34202 -0.939693 0   
     length 7.27512   
     axis 0 0 -20   XYZ
    dof rx ry rz
    limits (-160.0 20.0)
           (-70.0 70.0)
           (-70.0 60.0)
  end
  begin
     id 8 
     name rtibia
     direction -0.34202 -0.939693 0   
     length 7.89523   
     axis 0 0 -20   XYZ
    dof rx
    limits (-10.0 170.0)
 end
 begin
     id 9 
     name rfoot
     direction -0.0860444 -0.236405 0.967837   
     length 2.29534  
     axis -90 -7.62852e-016 -20   XYZ
    dof rx rz
    limits (-45.0 90.0)
           (-20.0 70.0)
  end
  begin
     id 10 
     name rtoes
     direction -1.53608e-011 -4.21861e-011 1   
     length 1.14915   
     axis -90 -7.62852e-016 -20   XYZ
    dof rx
    limits (-90.0 20.0)
  end
  begin
     id 11 
     name lowerback
     direction -0.00734074 0.997215 -0.0742143   
     length 2.13469   
     axis 0 0 0   XYZ
    dof rx ry rz
    limits (-20.0 45.0)
           (-30.0 30.0)
           (-30.0 30.0)
  end
  begin
     id 12 
     name upperback
     direction 0.0285728 0.99958 -0.00488656   
     length 2.13416   
     axis 0 0 0   XYZ
    dof rx ry rz
    limits (-20.0 45.0)
           (-30.0 30.0)
           (-30.0 30.0)
  end
  begin
     id 13 
     name thorax
     direction 0.0316844 0.999056 0.0297249   
     length 2.14463   
     axis 0 0 0   XYZ
    dof rx ry rz
    limits (-20.0 45.0)
           (-30.0 30.0)
           (-30.0 30.0)
  end
  begin
     id 14 
     name lowerneck
     direction -0.0281545 0.996802 0.0747864   
     length 1.79004   
     axis 0 0 0   XYZ
    dof rx ry rz
    limits (-20.0 45.0)
           (-30.0 30.0)
           (-30.0 30.0)
  end
  begin
     id 15 
     name upperneck
     direction -0.00100185 0.982732 -0.185031   
     length 1.79988   
     axis 0 0 0   XYZ
    dof rx ry rz
    limits (-20.0 45.0)
           (-30.0 30.0)
           (-30.0 30.0)
  end
  begin
     id 16
     name head
     direction 0.00403747 0.997539 -0.0700022  
     length 1.81696  
     axis 0 0 0   XYZ
    dof rx ry rz
    limits (-20.0 45.0)
           (-30.0 30.0)
           (-30.0 30.0)
  end
  begin
     id 17 
     name lclavicle
     direction 0.959882 0.242905 -0.140082  
     length 3.87755  
     axis 0 0 0   XYZ
    dof ry rz
    limits (-20.0 10.0)
           (0.0 20.0)
  end
  begin
     id 18 
     name lhumerus
     direction 1 -4.4895e-011 3.76166e-027   
     length 5.14601   
     axis 180 -30 -90   XYZ
    dof rx ry rz
    limits (-60.0 90.0)
           (-90.0 90.0)
           (-90.0 90.0)
  end
  begin
     id 19
     name lradius
     direction 1 -4.48966e-011 -3.24039e-027   
     length 3.64452   
     axis 180 -30 -90   XYZ
    dof rx
    limits (-10.0 170.0)
  end
  begin
     id 20
     name lwrist
     direction 1 -4.48999e-011 2.57119e-027   
     length 1.82226   
     axis -1.61769e-015 90 90   XYZ
    dof ry
    limits (-180.0 0.0)
 end
  begin
     id 21 
     name lhand
     direction 1 -4.48961e-011 5.13984e-027   
     length 0.56228   
     axis -3.27988e-015 90 90   XYZ
    dof rx rz
    limits (-90.0 90.0)
           (-45.0 45.0)
  end
  begin
     id 22 
     name lfingers
     direction 1 -4.48991e-011 1.02836e-026   
     length 0.453325   
     axis -6.5598e-015 90 90   XYZ
    dof rx
    limits (0.0 90.0)
  end
  begin
     id 23
     name lthumb
     direction 0.707107 -6.34956e-011 0.707107   
     length 0.650886   
     axis -90 45 2.19363e-014   XYZ
    dof rx rz
    limits (-45.0 45.0)
           (-45.0 45.0)
  end
  begin
     id 24 
     name rclavicle
     direction -0.929201 0.345171 -0.132073   
     length 3.55416  
     axis 0 0 0   XYZ 
    dof ry rz
    limits (-10.0 20.0)
           (-20.0 0.0)
  end
  begin
     id 25 
     name rhumerus
     direction -1 -4.48979e-011 4.53734e-027  
     length 5.33913   
     axis 180 30 90   XYZ
    dof rx ry rz
    limits (-90.0 60.0)
           (-90.0 90.0)
           (-90.0 90.0)
  end
  begin
     id 26 
     name rradius
     direction -1 -4.4896e-011 -2.24007e-027   
     length 3.56478   
     axis 180 30 90   XYZ
    dof rx
    limits (-10.0 170.0)
  end
  begin
     id 27 
     name rwrist
     direction -1 -4.48923e-011 2.56866e-027   
     length 1.78239   
     axis -1.61769e-015 -90 -90   XYZ
    dof ry
    limits (-180.0 0.0)
  end
  begin
     id 28
     name rhand
     direction -1 -4.48914e-011 5.13667e-027   
     length 0.857474   
     axis -3.27988e-015 -90 -90   XYZ
    dof rx rz
    limits (-90.0 90.0)
           (-45.0 45.0)
  end
  begin
     id 29
     name rfingers
     direction -1 -4.49112e-011 1.02998e-026   
     length 0.691318   
     axis -6.5598e-015 -90 -90   XYZ
    dof rx
    limits (0.0 90.0)
  end
  begin
     id 30
     name rthumb
     direction -0.707107 -6.34979e-011 0.707107   
     length 0.992598   
     axis -90 -45 -2.19363e-014   XYZ
    dof rx rz
    limits (-45.0 45.0)
           (-45.0 45.0)
  end
:hierarchy
  begin
    root lhipjoint rhipjoint lowerback
    lhipjoint lfemur
    lfemur ltibia
    ltibia lfoot
    lfoot ltoes
    rhipjoint rfemur
    rfemur rtibia
    rtibia rfoot
    rfoot rtoes
    lowerback upperback
    upperback thorax
    thorax lowerneck lclavicle rclavicle
    lowerneck upperneck
    upperneck head
    lclavicle lhumerus
    lhumerus lradius
    lradius lwrist
    lwrist lhand lthumb
    lhand lfingers
    rclavicle rhumerus
    rhumerus rradius
    rradius rwrist
    rwrist rhand rthumb
    rhand rfingers
  end

#!OML:ASF F:\VICON\USERDATA\INSTALL\Justin4\Justin4.ASF
:FULLY-SPECIFIED
:DEGREES
957
root -5.51549 18.138 2.00058 0.973178 -12.445 -1.48915
lowerback 11.3217 -1.65074 -3.0759
upperback 2.07022 -2.44141 2.78834
thorax -3.9234 -1.16873 5.01078
lowerneck -6.13392 -3.78268 -4.63962
upperneck 19.3412 -6.16118 7.72639
head 7.29929 -2.67667 2.7801
rclavicle 5.1684e-014 -9.93923e-015
rhumerus 6.23926 -3.15177 -70.1839
rradius 144.864
rwrist -2.69631
rhand -4.52082 20.1865
rfingers 7.12502
rthumb 21.2538 -8.66822
lclavicle 5.1684e-014 -9.93923e-015
lhumerus 3.18522 -13.9744 85.9594
lradius 137.011
lwrist 6.98777
lhand -8.36449 9.36491
lfingers 7.12502
lthumb 17.5581 38.5921
rfemur -16.4811 -13.9704 10.895
rtibia 60.8041
rfoot 10.5506 1.76856
rtoes -1.88799
lfemur -12.627 5.27899 -1.84863
ltibia 49.8093
lfoot -1.0699 4.00609
ltoes -26.0467
958
root -5.36702 18.0567 1.93621 1.22603 -14.0206 -1.60949
lowerback 11.083 -1.44174 -2.94359
upperback 1.93746 -2.14671 2.721
thorax -3.96993 -1.02087 4.81722
lowerneck -6.47301 -3.68665 -4.42043
upperneck 20.0524 -6.00219 7.20767
head 7.56025 -2.61186 2.58482
rclavicle 4.5472e-014 -3.37934e-014
rhumerus 5.96687 -2.62446 -70.697
rradius 143.949
rwrist -0.782429
rhand -6.84664 21.5566
rfingers 7.12502
rthumb 19.0183 -7.53357
lclavicle 4.5472e-014 -3.37934e-014
lhumerus 2.70778 -13.3039 85.8147
lradius 137.347
lwrist 6.66568
lhand -8.12969 9.78248
lfingers 7.12502
lthumb 17.7841 38.9893
rfemur -15.783 -13.5104 11.3418
rtibia 59.5415
rfoot 8.80635 0.93774
rtoes -6.27046
lfemur -12.0756 5.35382 -0.875193
ltibia 50.1498
lfoot 0.181368 3.95543
ltoes -27.0849
959
root -5.21765 17.9532 1.86426 1.45267 -15.4969 -1.61661
lowerback 10.8551 -1.30636 -2.8941
upperback 1.79883 -1.96287 2.57749
thorax -4.0149 -0.927327 4.60697
lowerneck -6.43777 -3.59557 -4.35143
upperneck 20.336 -5.86206 6.96152
head 7.62871 -2.56044 2.5067
rclavicle -7.25564e-014 4.77083e-015
rhumerus 5.55868 -2.25506 -71.349
rradius 143.604
rwrist -0.367043
rhand -7.37683 21.8159
rfingers 7.12502
rthumb 18.5084 -7.32359
lclavicle -7.25564e-014 4.77083e-015
lhumerus 2.17816 -12.9077 85.5661
lradius 137.904
lwrist 6.27549
lhand -8.50258 11.5354
lfingers 7.12502
lthumb 17.4252 40.7744
rfemur -15.0429 -13.1856 11.6205
rtibia 58.2391
rfoot 6.32901 -1.44218
rtoes -10.2298
lfemur -11.5492 5.46154 -0.0071214
ltibia 50.4375
lfoot 1.42451 3.47175
ltoes -28.3876
960
root -5.07109 17.8432 1.79249 1.60029 -17.1101 -1.27601
lowerback 10.552 -1.14402 -3.21546
upperback 1.69919 -1.78755 2.34553
thorax -3.96604 -0.836589 4.51267
lowerneck -6.19847 -3.45527 -4.3673
upperneck 20.2931 -5.63654 6.77905
head 7.55213 -2.47799 2.47307
rclavicle -4.23908e-014 -1.07344e-014
rhumerus 5.12219 -1.95962 -72.0715
rradius 143.549
rwrist -0.532897
rhand -6.96862 21.5455
rfingers 7.12502
rthumb 18.901 -7.55622
lclavicle -4.23908e-014 -1.07344e-014
lhumerus 1.72524 -12.4659 85.2266
lradius 138.588
lwrist 6.20714
lhand -8.79863 12.5933
lfingers 7.12502
lthumb 17.1403 41.8572
rfemur -14.3847 -12.8471 11.4235
rtibia 56.9113
rfoot 3.73159 -4.69661
rtoes -11.9257
lfemur -10.8933 5.5671 0.397672
ltibia 50.6184
lfoot 2.51898 3.07117
ltoes -29.7902
961
root -4.92513 17.728 1.72829 1.73712 -18.9419 -1.04642
lowerback 10.1402 -0.891707 -3.4157
upperback 1.7245 -1.47354 2.1335
thorax -3.7431 -0.685447 4.34812
lowerneck -6.36131 -3.34274 -4.18589
upperneck 20.337 -5.40941 6.30615
head 7.56459 -2.39396 2.30434
rclavicle -1.05356e-014 -4.57205e-015
rhumerus 4.62184 -1.63458 -72.6944
rradius 142.616
rwrist 1.90306
rhand -9.47027 23.0907
rfingers 7.12502
rthumb 16.4937 -6.22823
lclavicle -1.05356e-014 -4.57205e-015
lhumerus 1.8282 -11.8877 84.8087
lradius 138.969
lwrist 6.04933
lhand -8.63941 12.388
lfingers 7.12502
lthumb 17.2935 41.6386
rfemur -13.8856 -12.3012 11.249
rtibia 55.6001
rfoot -0.014528 -7.53206
rtoes -15.2621
lfemur -9.9805 5.78118 0.868883
ltibia 50.6392
lfoot 3.56244 2.9108
ltoes -30.9791
962
root -4.77198 17.5963 1.65902 1.98519 -20.6665 -0.991961
lowerback 9.69189 -0.604619 -3.27897
upperback 1.69434 -1.07396 1.93102
thorax -3.57199 -0.493067 3.99608
lowerneck -6.51462 -3.22328 -4.10427
upperneck 20.4985 -5.18283 5.91726
head 7.62023 -2.30975 2.18095
rclavicle -5.52373e-014 -7.15625e-015
rhumerus 4.04289 -1.7526 -73.2513
rradius 142.702
rwrist 1.37307
rhand -8.41826 22.24
rfingers 7.12502
rthumb 17.5064 -6.99178
lclavicle -5.52373e-014 -7.15625e-015
lhumerus 2.10936 -11.6048 84.4922
lradius 139.105
lwrist 5.68553
lhand -8.72574 12.2247
lfingers 7.12502
lthumb 17.2104 41.4826
rfemur -13.6474 -11.7665 11.2201
rtibia 54.4866
rfoot -4.61055 -9.34365
rtoes -19.7393
lfemur -9.11851 5.87612 1.46071
ltibia 50.505
lfoot 4.51831 2.94376
ltoes -32.4659
963
root -4.61455 17.465 1.582 2.25436 -22.2733 -0.797716
lowerback 9.45697 -0.333637 -3.18882
upperback 1.42527 -0.707029 1.70553
thorax -3.75991 -0.303859 3.6624
lowerneck -6.05123 -2.99998 -4.39317
upperneck 20.4945 -4.83102 5.81989
head 7.51982 -2.18308 2.23546
rclavicle -2.87244e-014 -2.98177e-015
rhumerus 3.13532 -1.87011 -73.7329
rradius 142.495
rwrist 1.6799
rhand -8.58258 22.252
rfingers 7.12502
rthumb 17.3482 -6.99381
lclavicle -2.87244e-014 -2.98177e-015
lhumerus 1.79373 -11.3223 84.5252
lradius 139.172
lwrist 5.52363
lhand -8.65296 11.8844
lfingers 7.12502
lthumb 17.2805 41.1361
rfemur -13.8129 -11.3173 10.9809
rtibia 53.767
rfoot -8.1643 -10.5434
rtoes -21.003
lfemur -8.30225 5.75159 1.74246
ltibia 50.2527
lfoot 4.98306 3.20015
ltoes -34.955
964
root -4.45401 17.3449 1.4992 2.6067 -23.8171 -0.599981
lowerback 9.48352 -0.157927 -3.15913
upperback 1.08145 -0.479445 1.51497
thorax -4.15498 -0.178289 3.42176
lowerneck -5.70847 -2.73892 -4.67341
upperneck 20.3893 -4.40925 5.66165
head 7.40228 -2.02507 2.2709
rclavicle -1.19519e-014 -2.18663e-015
rhumerus 2.3865 -1.79172 -74.2758
rradius 142.099
rwrist 1.91812
rhand -9.04943 22.563
rfingers 7.12502
rthumb 16.8989 -6.72179
lclavicle -1.19519e-014 -2.18663e-015
lhumerus 1.3496 -10.7377 84.627
lradius 139.125
lwrist 5.31039
lhand -8.48514 10.6148
lfingers 7.12502
lthumb 17.442 39.8522
rfemur -14.6411 -10.974 10.6203
rtibia 53.5339
rfoot -10.2748 -11.7161
rtoes -20.9946
lfemur -7.57249 5.50196 1.85385
ltibia 49.9043
lfoot 4.9395 3.40714
ltoes -36.3263
965
root -4.28348 17.2132 1.40506 3.04131 -25.2218 -0.428849
lowerback 9.59735 -0.0865511 -3.15016
upperback 0.847687 -0.394577 1.35905
thorax -4.47096 -0.127332 3.24613
lowerneck -5.93613 -2.48536 -4.75359
upperneck 20.3361 -3.95415 5.25196
head 7.39422 -1.84535 2.18531
rclavicle 1.85367e-014 -8.54774e-015
rhumerus 1.87995 -1.50813 -74.886
rradius 142.087
rwrist 0.9816
rhand -8.44687 22.1302
rfingers 7.12502
rthumb 17.4788 -7.10404
lclavicle 1.85367e-014 -8.54774e-015
lhumerus 1.43119 -9.87967 84.5499
lradius 138.937
lwrist 5.04092
lhand -8.34052 8.82781
lfingers 7.12502
lthumb 17.5812 38.0529
rfemur -16.0456 -10.6528 10.1652
rtibia 53.7962
rfoot -12.1406 -12.2867
rtoes -20.8322
lfemur -7.10787 5.27274 1.87404
ltibia 49.453
lfoot 5.12415 2.58508
ltoes -35.7801
966
root -4.10503 17.0779 1.3154 3.23407 -26.5871 -0.173395
lowerback 9.84186 -0.0501147 -3.15633
upperback 0.76692 -0.363418 1.17825
thorax -4.69578 -0.107817 3.05968
lowerneck -6.38956 -2.2111 -4.79697
upperneck 20.2786 -3.4427 4.73743
head 7.42208 -1.64128 2.06215
rclavicle 2.62147e-015 -8.94531e-015
rhumerus 1.42095 -1.26181 -75.613
rradius 142.432
rwrist -0.543472
rhand -6.74011 21.1361
rfingers 7.12502
rthumb 19.1208 -7.94397
lclavicle 2.62147e-015 -8.94531e-015
lhumerus 1.79593 -9.04709 84.4401
lradius 138.914
lwrist 4.97231
lhand -8.11969 8.62203
lfingers 7.12502
lthumb 17.7937 37.828
rfemur -17.5458 -10.4059 9.466
rtibia 54.4838
rfoot -14.1794 -11.8775
rtoes -21.5639
lfemur -6.41706 4.9957 1.66025
ltibia 48.8216
lfoot 5.5379 0.409539
ltoes -37.2881
